<svg xmlns="http://www.w3.org/2000/svg" xmlns:xlink="http://www.w3.org/1999/xlink" version="1.1" class="marks" width="932" height="498" viewBox="0 0 932 498"><rect width="932" height="498" fill="white"/><g fill="none" stroke-miterlimit="10" transform="translate(72,41)"><g class="mark-group role-frame root" role="graphics-object" aria-roledescription="group mark container"><g transform="translate(0,0)"><path class="background" aria-hidden="true" d="M0.5,0.5h760v420h-760Z" stroke="#ddd"/><g><g class="mark-group role-axis" aria-hidden="true"><g transform="translate(0.5,420.5)"><path class="background" aria-hidden="true" d="M0,0h0v0h0Z" pointer-events="none"/><g><g class="mark-rule role-axis-grid" pointer-events="none"><line transform="translate(25,-420)" x2="0" y2="420" stroke="#ddd" stroke-width="1" opacity="1"/><line transform="translate(49,-420)" x2="0" y2="420" stroke="#ddd" stroke-width="1" opacity="1"/><line transform="translate(76,-420)" x2="0" y2="420" stroke="#ddd" stroke-width="1" opacity="1"/><line transform="translate(102,-420)" x2="0" y2="420" stroke="#ddd" stroke-width="1" opacity="1"/><line transform="translate(128,-420)" x2="0" y2="420" stroke="#ddd" stroke-width="1" opacity="1"/><line transform="translate(154,-420)" x2="0" y2="420" stroke="#ddd" stroke-width="1" opacity="1"/><line transform="translate(181,-420)" x2="0" y2="420" stroke="#ddd" stroke-width="1" opacity="1"/><line transform="translate(208,-420)" x2="0" y2="420" stroke="#ddd" stroke-width="1" opacity="1"/><line transform="translate(233,-420)" x2="0" y2="420" stroke="#ddd" stroke-width="1" opacity="1"/><line transform="translate(260,-420)" x2="0" y2="420" stroke="#ddd" stroke-width="1" opacity="1"/><line transform="translate(286,-420)" x2="0" y2="420" stroke="#ddd" stroke-width="1" opacity="1"/><line transform="translate(313,-420)" x2="0" y2="420" stroke="#ddd" stroke-width="1" opacity="1"/><line transform="translate(340,-420)" x2="0" y2="420" stroke="#ddd" stroke-width="1" opacity="1"/><line transform="translate(364,-420)" x2="0" y2="420" stroke="#ddd" stroke-width="1" opacity="1"/><line transform="translate(390,-420)" x2="0" y2="420" stroke="#ddd" stroke-width="1" opacity="1"/><line transform="translate(416,-420)" x2="0" y2="420" stroke="#ddd" stroke-width="1" opacity="1"/><line transform="translate(443,-420)" x2="0" y2="420" stroke="#ddd" stroke-width="1" opacity="1"/><line transform="translate(469,-420)" x2="0" y2="420" stroke="#ddd" stroke-width="1" opacity="1"/><line transform="translate(495,-420)" x2="0" y2="420" stroke="#ddd" stroke-width="1" opacity="1"/><line transform="translate(522,-420)" x2="0" y2="420" stroke="#ddd" stroke-width="1" opacity="1"/><line transform="translate(548,-420)" x2="0" y2="420" stroke="#ddd" stroke-width="1" opacity="1"/><line transform="translate(575,-420)" x2="0" y2="420" stroke="#ddd" stroke-width="1" opacity="1"/><line transform="translate(601,-420)" x2="0" y2="420" stroke="#ddd" stroke-width="1" opacity="1"/><line transform="translate(627,-420)" x2="0" y2="420" stroke="#ddd" stroke-width="1" opacity="1"/><line transform="translate(654,-420)" x2="0" y2="420" stroke="#ddd" stroke-width="1" opacity="1"/><line transform="translate(679,-420)" x2="0" y2="420" stroke="#ddd" stroke-width="1" opacity="1"/><line transform="translate(706,-420)" x2="0" y2="420" stroke="#ddd" stroke-width="1" opacity="1"/><line transform="translate(732,-420)" x2="0" y2="420" stroke="#ddd" stroke-width="1" opacity="1"/><line transform="translate(758,-420)" x2="0" y2="420" stroke="#ddd" stroke-width="1" opacity="1"/></g></g><path class="foreground" aria-hidden="true" d="" pointer-events="none" display="none"/></g></g><g class="mark-group role-axis" aria-hidden="true"><g transform="translate(0.5,0.5)"><path class="background" aria-hidden="true" d="M0,0h0v0h0Z" pointer-events="none"/><g><g class="mark-rule role-axis-grid" pointer-events="none"><line transform="translate(0,420)" x2="760" y2="0" stroke="#ddd" stroke-width="1" opacity="1"/><line transform="translate(0,368)" x2="760" y2="0" stroke="#ddd" stroke-width="1" opacity="1"/><line transform="translate(0,315)" x2="760" y2="0" stroke="#ddd" stroke-width="1" opacity="1"/><line transform="translate(0,263)" x2="760" y2="0" stroke="#ddd" stroke-width="1" opacity="1"/><line transform="translate(0,210)" x2="760" y2="0" stroke="#ddd" stroke-width="1" opacity="1"/><line transform="translate(0,158)" x2="760" y2="0" stroke="#ddd" stroke-width="1" opacity="1"/><line transform="translate(0,105)" x2="760" y2="0" stroke="#ddd" stroke-width="1" opacity="1"/><line transform="translate(0,53)" x2="760" y2="0" stroke="#ddd" stroke-width="1" opacity="1"/><line transform="translate(0,0)" x2="760" y2="0" stroke="#ddd" stroke-width="1" opacity="1"/></g></g><path class="foreground" aria-hidden="true" d="" pointer-events="none" display="none"/></g></g><g class="mark-group role-axis" role="graphics-symbol" aria-roledescription="axis" aria-label="X-axis titled 'Date' for a time scale with values from Monday, 03 January 2022, 12:00:00 AM to Monday, 03 June 2024, 1:00:00 AM"><g transform="translate(0.5,420.5)"><path class="background" aria-hidden="true" d="M0,0h0v0h0Z" pointer-events="none"/><g><g class="mark-rule role-axis-tick" pointer-events="none"><line transform="translate(25,0)" x2="0" y2="5" stroke="#888" stroke-width="1" opacity="1"/><line transform="translate(49,0)" x2="0" y2="5" stroke="#888" stroke-width="1" opacity="1"/><line transform="translate(76,0)" x2="0" y2="5" stroke="#888" stroke-width="1" opacity="1"/><line transform="translate(102,0)" x2="0" y2="5" stroke="#888" stroke-width="1" opacity="1"/><line transform="translate(128,0)" x2="0" y2="5" stroke="#888" stroke-width="1" opacity="1"/><line transform="translate(154,0)" x2="0" y2="5" stroke="#888" stroke-width="1" opacity="1"/><line transform="translate(181,0)" x2="0" y2="5" stroke="#888" stroke-width="1" opacity="1"/><line transform="translate(208,0)" x2="0" y2="5" stroke="#888" stroke-width="1" opacity="1"/><line transform="translate(233,0)" x2="0" y2="5" stroke="#888" stroke-width="1" opacity="1"/><line transform="translate(260,0)" x2="0" y2="5" stroke="#888" stroke-width="1" opacity="1"/><line transform="translate(286,0)" x2="0" y2="5" stroke="#888" stroke-width="1" opacity="1"/><line transform="translate(313,0)" x2="0" y2="5" stroke="#888" stroke-width="1" opacity="1"/><line transform="translate(340,0)" x2="0" y2="5" stroke="#888" stroke-width="1" opacity="1"/><line transform="translate(364,0)" x2="0" y2="5" stroke="#888" stroke-width="1" opacity="1"/><line transform="translate(390,0)" x2="0" y2="5" stroke="#888" stroke-width="1" opacity="1"/><line transform="translate(416,0)" x2="0" y2="5" stroke="#888" stroke-width="1" opacity="1"/><line transform="translate(443,0)" x2="0" y2="5" stroke="#888" stroke-width="1" opacity="1"/><line transform="translate(469,0)" x2="0" y2="5" stroke="#888" stroke-width="1" opacity="1"/><line transform="translate(495,0)" x2="0" y2="5" stroke="#888" stroke-width="1" opacity="1"/><line transform="translate(522,0)" x2="0" y2="5" stroke="#888" stroke-width="1" opacity="1"/><line transform="translate(548,0)" x2="0" y2="5" stroke="#888" stroke-width="1" opacity="1"/><line transform="translate(575,0)" x2="0" y2="5" stroke="#888" stroke-width="1" opacity="1"/><line transform="translate(601,0)" x2="0" y2="5" stroke="#888" stroke-width="1" opacity="1"/><line transform="translate(627,0)" x2="0" y2="5" stroke="#888" stroke-width="1" opacity="1"/><line transform="translate(654,0)" x2="0" y2="5" stroke="#888" stroke-width="1" opacity="1"/><line transform="translate(679,0)" x2="0" y2="5" stroke="#888" stroke-width="1" opacity="1"/><line transform="translate(706,0)" x2="0" y2="5" stroke="#888" stroke-width="1" opacity="1"/><line transform="translate(732,0)" x2="0" y2="5" stroke="#888" stroke-width="1" opacity="1"/><line transform="translate(758,0)" x2="0" y2="5" stroke="#888" stroke-width="1" opacity="1"/></g><g class="mark-text role-axis-label" pointer-events="none"><text text-anchor="middle" transform="translate(24.988662131519273,15)" font-family="sans-serif" font-size="10px" fill="#000" opacity="1">February</text><text text-anchor="middle" transform="translate(49.1156462585034,15)" font-family="sans-serif" font-size="10px" fill="#000" opacity="0">March</text><text text-anchor="middle" transform="translate(75.79176114890402,15)" font-family="sans-serif" font-size="10px" fill="#000" opacity="1">April</text><text text-anchor="middle" transform="translate(101.64210128495843,15)" font-family="sans-serif" font-size="10px" fill="#000" opacity="0">May</text><text text-anchor="middle" transform="translate(128.354119425548,15)" font-family="sans-serif" font-size="10px" fill="#000" opacity="1">June</text><text text-anchor="middle" transform="translate(154.20445956160242,15)" font-family="sans-serif" font-size="10px" fill="#000" opacity="0">July</text><text text-anchor="middle" transform="translate(180.91647770219197,15)" font-family="sans-serif" font-size="10px" fill="#000" opacity="1">August</text><text text-anchor="middle" transform="translate(207.62849584278158,15)" font-family="sans-serif" font-size="10px" fill="#000" opacity="0">September</text><text text-anchor="middle" transform="translate(233.47883597883597,15)" font-family="sans-serif" font-size="10px" fill="#000" opacity="1">October</text><text text-anchor="middle" transform="translate(260.2267573696145,15)" font-family="sans-serif" font-size="10px" fill="#000" opacity="0">November</text><text text-anchor="middle" transform="translate(286.0770975056689,15)" font-family="sans-serif" font-size="10px" fill="#000" opacity="1">December</text><text text-anchor="middle" transform="translate(312.7891156462585,15)" font-family="sans-serif" font-size="10px" fill="#000" opacity="0">2023</text><text text-anchor="middle" transform="translate(339.5011337868481,15)" font-family="sans-serif" font-size="10px" fill="#000" opacity="1">February</text><text text-anchor="middle" transform="translate(363.6281179138322,15)" font-family="sans-serif" font-size="10px" fill="#000" opacity="0">March</text><text text-anchor="middle" transform="translate(390.3042328042328,15)" font-family="sans-serif" font-size="10px" fill="#000" opacity="1">April</text><text text-anchor="middle" transform="translate(416.15457294028727,15)" font-family="sans-serif" font-size="10px" fill="#000" opacity="0">May</text><text text-anchor="middle" transform="translate(442.86659108087684,15)" font-family="sans-serif" font-size="10px" fill="#000" opacity="1">June</text><text text-anchor="middle" transform="translate(468.7169312169312,15)" font-family="sans-serif" font-size="10px" fill="#000" opacity="0">July</text><text text-anchor="middle" transform="translate(495.42894935752076,15)" font-family="sans-serif" font-size="10px" fill="#000" opacity="1">August</text><text text-anchor="middle" transform="translate(522.1409674981103,15)" font-family="sans-serif" font-size="10px" fill="#000" opacity="0">September</text><text text-anchor="middle" transform="translate(547.9913076341647,15)" font-family="sans-serif" font-size="10px" fill="#000" opacity="1">October</text><text text-anchor="middle" transform="translate(574.7392290249434,15)" font-family="sans-serif" font-size="10px" fill="#000" opacity="0">November</text><text text-anchor="middle" transform="translate(600.5895691609977,15)" font-family="sans-serif" font-size="10px" fill="#000" opacity="1">December</text><text text-anchor="middle" transform="translate(627.3015873015872,15)" font-family="sans-serif" font-size="10px" fill="#000" opacity="0">2024</text><text text-anchor="middle" transform="translate(654.0136054421769,15)" font-family="sans-serif" font-size="10px" fill="#000" opacity="1">February</text><text text-anchor="middle" transform="translate(679.0022675736961,15)" font-family="sans-serif" font-size="10px" fill="#000" opacity="0">March</text><text text-anchor="middle" transform="translate(705.6783824640968,15)" font-family="sans-serif" font-size="10px" fill="#000" opacity="1">April</text><text text-anchor="middle" transform="translate(731.5287226001512,15)" font-family="sans-serif" font-size="10px" fill="#000" opacity="0">May</text><text text-anchor="middle" transform="translate(758.2407407407408,15)" font-family="sans-serif" font-size="10px" fill="#000" opacity="1">June</text></g><g class="mark-rule role-axis-domain" pointer-events="none"><line transform="translate(0,0)" x2="760" y2="0" stroke="#888" stroke-width="1" opacity="1"/></g><g class="mark-text role-axis-title" pointer-events="none"><text text-anchor="middle" transform="translate(380,30)" font-family="sans-serif" font-size="11px" font-weight="bold" fill="#000" opacity="1">Date</text></g></g><path class="foreground" aria-hidden="true" d="" pointer-events="none" display="none"/></g></g><g class="mark-group role-axis" role="graphics-symbol" aria-roledescription="axis" aria-label="Y-axis titled 'Portfolio value' for a linear scale with values from 0 to 1,600,000"><g transform="translate(0.5,0.5)"><path class="background" aria-hidden="true" d="M0,0h0v0h0Z" pointer-events="none"/><g><g class="mark-rule role-axis-tick" pointer-events="none"><line transform="translate(0,420)" x2="-5" y2="0" stroke="#888" stroke-width="1" opacity="1"/><line transform="translate(0,368)" x2="-5" y2="0" stroke="#888" stroke-width="1" opacity="1"/><line transform="translate(0,315)" x2="-5" y2="0" stroke="#888" stroke-width="1" opacity="1"/><line transform="translate(0,263)" x2="-5" y2="0" stroke="#888" stroke-width="1" opacity="1"/><line transform="translate(0,210)" x2="-5" y2="0" stroke="#888" stroke-width="1" opacity="1"/><line transform="translate(0,158)" x2="-5" y2="0" stroke="#888" stroke-width="1" opacity="1"/><line transform="translate(0,105)" x2="-5" y2="0" stroke="#888" stroke-width="1" opacity="1"/><line transform="translate(0,53)" x2="-5" y2="0" stroke="#888" stroke-width="1" opacity="1"/><line transform="translate(0,0)" x2="-5" y2="0" stroke="#888" stroke-width="1" opacity="1"/></g><g class="mark-text role-axis-label" pointer-events="none"><text text-anchor="end" transform="translate(-7,423)" font-family="sans-serif" font-size="10px" fill="#000" opacity="1">0</text><text text-anchor="end" transform="translate(-7,370.5)" font-family="sans-serif" font-size="10px" fill="#000" opacity="1">200,000</text><text text-anchor="end" transform="translate(-7,318)" font-family="sans-serif" font-size="10px" fill="#000" opacity="1">400,000</text><text text-anchor="end" transform="translate(-7,265.5)" font-family="sans-serif" font-size="10px" fill="#000" opacity="1">600,000</text><text text-anchor="end" transform="translate(-7,213)" font-family="sans-serif" font-size="10px" fill="#000" opacity="1">800,000</text><text text-anchor="end" transform="translate(-7,160.5)" font-family="sans-serif" font-size="10px" fill="#000" opacity="1">1,000,000</text><text text-anchor="end" transform="translate(-7,108)" font-family="sans-serif" font-size="10px" fill="#000" opacity="1">1,200,000</text><text text-anchor="end" transform="translate(-7,55.5)" font-family="sans-serif" font-size="10px" fill="#000" opacity="1">1,400,000</text><text text-anchor="end" transform="translate(-7,3)" font-family="sans-serif" font-size="10px" fill="#000" opacity="1">1,600,000</text></g><g class="mark-rule role-axis-domain" pointer-events="none"><line transform="translate(0,420)" x2="0" y2="-420" stroke="#888" stroke-width="1" opacity="1"/></g><g class="mark-text role-axis-title" pointer-events="none"><text text-anchor="middle" transform="translate(-55.4873046875,210) rotate(-90) translate(0,-2)" font-family="sans-serif" font-size="11px" font-weight="bold" fill="#000" opacity="1">Portfolio value</text></g></g><path class="foreground" aria-hidden="true" d="" pointer-events="none" display="none"/></g></g><g class="mark-group role-scope pathgroup" role="graphics-object" aria-roledescription="group mark container"><g transform="translate(0,0)"><path class="background" aria-hidden="true" d="M0,0h760v420h-760Z"/><g><g class="mark-line role-mark marks" role="graphics-symbol" aria-roledescription="line mark container"><path d="M0,157.5L26.712,157.5L50.839,157.5L77.551,157.5L103.401,152.452L130.113,148.623L155.964,147.913L182.676,142.803L209.388,140.936L235.238,135.8L261.95,131.324L287.8,127.511L314.512,122.373L341.224,116.66L365.351,111.624L392.063,110.155L417.914,103.203L444.626,96.834L470.476,91.142L497.188,86L523.9,80.314L549.751,73.957L576.463,68.813L602.313,63.138L629.025,57.992L655.737,50.957L680.726,50.635L707.438,42.373L733.288,37.23L760,30.191" stroke="#f58518" stroke-width="2"/></g></g><path class="foreground" aria-hidden="true" d="" display="none"/></g><g transform="translate(0,0)"><path class="background" aria-hidden="true" d="M0,0h760v420h-760Z"/><g><g class="mark-line role-mark marks" role="graphics-symbol" aria-roledescription="line mark container"><path d="M0,157.5L26.712,157.5L50.839,156.621L77.551,153.585L103.401,151.133L130.113,147.108L155.964,145.757L182.676,141.453L209.388,139.327L235.238,134.717L261.95,130.551L287.8,127.123L314.512,122.517L341.224,117.529L365.351,112.699L392.063,110.535L417.914,104.428L444.626,99.011L470.476,93.747L497.188,88.848L523.9,83.89L549.751,77.89L576.463,72.99L602.313,67.44L629.025,62.238L655.737,55.792L680.726,53.764L707.438,46.502L733.288,41.001L760,34.249" stroke="#4c78a8" stroke-width="2"/></g></g><path class="foreground" aria-hidden="true" d="" display="none"/></g></g><g class="mark-group role-legend" role="graphics-symbol" aria-roledescription="legend" aria-label="Symbol legend titled 'Strategy' for stroke color with 2 values: Equal weight, Fundamental"><g transform="translate(780,0)"><path class="background" aria-hidden="true" d="M0,0h75v40h-75Z" pointer-events="none"/><g><g class="mark-group role-legend-entry"><g transform="translate(0,16)"><path class="background" aria-hidden="true" d="M0,0h0v0h0Z" pointer-events="none"/><g><g class="mark-group role-scope" role="graphics-object" aria-roledescription="group mark container"><g transform="translate(0,0)"><path class="background" aria-hidden="true" d="M0,0h74.369140625v11h-74.369140625Z" pointer-events="none" opacity="1"/><g><g class="mark-symbol role-legend-symbol" pointer-events="none"><path transform="translate(6,6)" d="M-5,0L5,0" stroke="#4c78a8" stroke-width="1.5" opacity="1"/></g><g class="mark-text role-legend-label" pointer-events="none"><text text-anchor="start" transform="translate(16,9)" font-family="sans-serif" font-size="10px" fill="#000" opacity="1">Equal weight</text></g></g><path class="foreground" aria-hidden="true" d="" pointer-events="none" display="none"/></g><g transform="translate(0,13)"><path class="background" aria-hidden="true" d="M0,0h74.369140625v11h-74.369140625Z" pointer-events="none" opacity="1"/><g><g class="mark-symbol role-legend-symbol" pointer-events="none"><path transform="translate(6,6)" d="M-5,0L5,0" stroke="#f58518" stroke-width="1.5" opacity="1"/></g><g class="mark-text role-legend-label" pointer-events="none"><text text-anchor="start" transform="translate(16,9)" font-family="sans-serif" font-size="10px" fill="#000" opacity="1">Fundamental</text></g></g><path class="foreground" aria-hidden="true" d="" pointer-events="none" display="none"/></g></g></g><path class="foreground" aria-hidden="true" d="" pointer-events="none" display="none"/></g></g><g class="mark-text role-legend-title" pointer-events="none"><text text-anchor="start" transform="translate(0,9)" font-family="sans-serif" font-size="11px" font-weight="bold" fill="#000" opacity="1">Strategy</text></g></g><path class="foreground" aria-hidden="true" d="" pointer-events="none" display="none"/></g></g><g class="mark-group role-title"><g transform="translate(380,-36)"><path class="background" aria-hidden="true" d="M0,0h0v0h0Z" pointer-events="none"/><g><g class="mark-text role-title-text" role="graphics-symbol" aria-roledescription="title" aria-label="Title text 'Point-in-time strategy comparison'" pointer-events="none"><text text-anchor="middle" transform="translate(0,10)" font-family="sans-serif" font-size="13px" font-weight="bold" fill="#000" opacity="1">Point-in-time strategy comparison</text></g><g class="mark-text role-title-subtitle" role="graphics-symbol" aria-roledescription="subtitle" aria-label="Subtitle text 'Synthetic demonstration data'" pointer-events="none"><text text-anchor="middle" transform="translate(0,25)" font-family="sans-serif" font-size="12px" fill="#000" opacity="1">Synthetic demonstration data</text></g></g><path class="foreground" aria-hidden="true" d="" pointer-events="none" display="none"/></g></g></g><path class="foreground" aria-hidden="true" d="" display="none"/></g></g></g></svg>